<svg width="30" height="30" viewBox="0 0 30 30" fill="none" xmlns="http://www.w3.org/2000/svg">
<path d="M15 0C19.1414 0 22.892 1.6793 25.6061 4.39395C28.3207 7.10801 30 10.8586 30 15C30 19.1414 28.3207 22.892 25.6061 25.6061C22.892 28.3207 19.1414 30 15 30C10.8586 30 7.10801 28.3207 4.39395 25.6061C1.6793 22.892 0 19.1414 0 15C0 10.8586 1.6793 7.10801 4.39395 4.39395C7.10801 1.6793 10.8586 0 15 0Z" fill="#999999"/>
<path d="M15 1.14142C18.8262 1.14142 22.2926 2.69298 24.7998 5.20021L24.8637 5.26935C27.3328 7.77189 28.8586 11.209 28.8586 14.9994C28.8586 18.8262 27.3059 22.292 24.7986 24.7992L24.7295 24.8631C22.2258 27.3334 18.7881 28.8586 15 28.8586C11.1779 28.8586 7.7127 27.3053 5.2043 24.7963C2.69415 22.292 1.142 18.8262 1.142 14.9994C1.142 11.1727 2.69356 7.70743 5.20079 5.20021C7.70801 2.69298 11.1738 1.14142 15 1.14142Z" fill="white"/>
<path d="M14.26 27.658H15.7406C22.3992 27.2748 27.6803 21.7541 27.6803 14.9994C27.6803 8.29572 22.4754 2.80665 15.8871 2.35138H14.1129C7.5252 2.80665 2.32031 8.29572 2.32031 14.9994C2.32031 21.7541 7.60137 27.2748 14.26 27.658Z" fill="white"/>
<path d="M14.26 27.658H15.7406C22.3975 27.2748 27.6773 21.7564 27.6803 15.0052H2.32031C2.32324 21.7564 7.60312 27.2748 14.26 27.658Z" fill="#DC143C"/>
</svg>
