<svg width="30" height="30" viewBox="0 0 30 30" fill="none" xmlns="http://www.w3.org/2000/svg">
<g clip-path="url(#clip0_79_1366)">
<path d="M15 30C19.1414 30 22.892 28.3207 25.6061 25.6061C28.3207 22.892 30 19.1414 30 15C30 10.8586 28.3207 7.10801 25.6061 4.39394C22.892 1.6793 19.1414 0 15 0C10.8586 0 7.10801 1.6793 4.39395 4.39394C1.6793 7.10801 0 10.8586 0 15C0 19.1414 1.6793 22.892 4.39395 25.6061C7.10801 28.3207 10.8586 30 15 30Z" fill="#999999"/>
<path d="M15 28.8586C18.8262 28.8586 22.2926 27.307 24.7998 24.7998L24.8637 24.7307C27.3328 22.2281 28.8586 18.791 28.8586 15.0006C28.8586 11.1738 27.3059 7.708 24.7986 5.20077L24.7295 5.1369C22.2258 2.66659 18.7881 1.1414 15 1.1414C11.1779 1.1414 7.7127 2.69472 5.2043 5.2037C2.69415 7.708 1.142 11.1738 1.142 15.0006C1.142 18.8273 2.69356 22.2926 5.20079 24.7998C7.70801 27.307 11.1738 28.8586 15 28.8586Z" fill="white"/>
<path d="M15 27.6803C22.0031 27.6803 27.6803 22.0031 27.6803 15.0006C27.6803 7.99746 22.0031 2.31972 15 2.31972C7.99746 2.31972 2.32031 7.99746 2.32031 15.0006C2.32031 22.0031 7.99746 27.6803 15 27.6803Z" fill="#FEFEFE"/>
<path d="M10.7514 19.4795V26.9502C8.33026 26.0889 6.24843 24.5121 4.75897 22.4766L10.7514 19.4795ZM10.7514 10.5205V3.04979C8.33143 3.91112 6.25018 5.48671 4.75956 7.52342L10.7514 10.5205ZM19.2211 10.5205V3.03983C21.6498 3.89706 23.7381 5.47381 25.2334 7.51288L19.2211 10.5205ZM19.2211 19.4795V26.9601C21.6498 26.1029 23.7392 24.5262 25.234 22.4865L19.2211 19.4795Z" fill="#012169"/>
<path d="M26.2676 10.7719H23.4486L26.3402 9.32343C26.5283 9.69902 26.6982 10.0852 26.8494 10.4807L26.2676 10.7719ZM25.7203 21.7734L20.6566 19.2346H23.4756L26.3438 20.6701C26.1545 21.0486 25.9459 21.4172 25.7203 21.7734ZM12.4459 12.4652V2.57753C13.2709 2.40937 14.1252 2.31972 15 2.31972C15.8648 2.31972 16.7104 2.40703 17.5272 2.57168V12.4652H27.426C27.5918 13.2844 27.6803 14.1316 27.6803 15.0006C27.6803 15.8725 27.5918 16.7244 27.4242 17.5477H17.5272V27.4277C16.6953 27.5959 15.8487 27.6805 15 27.6803C14.1252 27.6803 13.2709 27.59 12.4459 27.4225V17.5477H2.57637C2.40585 16.7094 2.32007 15.856 2.32031 15.0006C2.32031 14.1316 2.40879 13.2844 2.57461 12.4652H12.4459ZM3.69844 19.2281H6.51738L3.65273 20.6625C3.46523 20.2869 3.29473 19.8996 3.14414 19.5047L3.69844 19.2281ZM9.31582 10.7654H6.49688L3.65098 9.34101C3.84107 8.96084 4.05012 8.59045 4.27734 8.23125L9.3416 10.7654H9.31582Z" fill="#C8102E"/>
</g>
<defs>
<clipPath id="clip0_79_1366">
<rect width="30" height="30" fill="white" transform="matrix(1 0 0 -1 0 30)"/>
</clipPath>
</defs>
</svg>
